# xmcd
#
# Track frame offsets:
#	150
#	16390
#	29495
#	41982
#	53677
#	71296
#	90405
#	109004
#	126442
#	146959
#	165008
#	180714
#	196255
#	212682
#
# Disc length: 2996 seconds
#
# Revision: 1
# Processed by: cddbd v1.5.2PL0 Copyright (c) Steve Scherf et al.
# Submitted via: audiograbber 1.83.01
#
DISCID=bf0bb20e
DTITLE=Various Artist - Nu Country Traxx 005
DYEAR=1999
DGENRE=Country
TTITLE0=Mullins - Black - You Didn't Did Ya
TTITLE1=Martina Mcbriade - I Love You
TTITLE2=Mindy Mccready - All I Want Is Everything
TTITLE3=Matt King - Rub It In
TTITLE4=Brad Paisley - He Didn't Have To Be
TTITLE5=Sara Evans - No Place That Far
TTITLE6=Clint Black - When I Said I Do
TTITLE7=Dixie Chicks - Ready To Run
TTITLE8=Tracy Byrd - Put Your Hand In Mine
TTITLE9=Alabama - Small Stuff
TTITLE10=John Berry - Power Windows
TTITLE11=Joe Diffie - The Quittin' Kind
TTITLE12=Ty Herndon - Steam
TTITLE13=Yankee Grey - All Things Considered
EXTD=
EXTT0=
EXTT1=
EXTT2=
EXTT3=
EXTT4=
EXTT5=
EXTT6=
EXTT7=
EXTT8=
EXTT9=
EXTT10=
EXTT11=
EXTT12=
EXTT13=
PLAYORDER=
